<svg width="25" height="25" viewBox="0 0 25 25" fill="none" xmlns="http://www.w3.org/2000/svg">
<path d="M23.15 7.17865L15.65 1.42913C14.858 0.827125 13.881 0.5 12.875 0.5C11.869 0.5 10.892 0.827125 10.1 1.42913L2.6 7.17865C2.06352 7.58414 1.62933 8.10294 1.33043 8.69565C1.03152 9.28836 0.875771 9.93938 0.875 10.5993V21.5889C0.877374 22.3602 1.19421 23.0994 1.7563 23.6448C2.3184 24.1902 3.08008 24.4977 3.875 24.5H8.15C8.94492 24.4977 9.7066 24.1902 10.2687 23.6448C10.8308 23.0994 11.1476 22.3602 11.15 21.5889V16.1304H15.275V21.5889C15.2774 22.3602 15.5942 23.0994 16.1563 23.6448C16.7184 24.1902 17.4801 24.4977 18.275 24.5H21.875C22.6699 24.4977 23.4316 24.1902 23.9937 23.6448C24.5558 23.0994 24.8726 22.3602 24.875 21.5889V10.5993C24.8742 9.93938 24.7185 9.28836 24.4196 8.69565C24.1207 8.10294 23.6865 7.58414 23.15 7.17865ZM21.875 21.5889H18.275V16.1304C18.2726 15.3591 17.9558 14.6199 17.3937 14.0745C16.8316 13.529 16.0699 13.2216 15.275 13.2193H11.15C10.3551 13.2216 9.5934 13.529 9.0313 14.0745C8.46921 14.6199 8.15237 15.3591 8.15 16.1304V21.5889H3.875V10.5993C3.87986 10.3741 3.93622 10.1529 4.03998 9.95152C4.14375 9.75013 4.29234 9.57364 4.475 9.4348L11.975 3.68527C12.5 3.2486 13.25 3.2486 13.85 3.68527L21.35 9.4348C21.5327 9.57364 21.6813 9.75013 21.785 9.95152C21.8888 10.1529 21.9451 10.3741 21.95 10.5993V21.5889H21.875Z" fill="#023586"/>
</svg>
