<svg width="25" height="25" viewBox="0 0 25 25" fill="none" xmlns="http://www.w3.org/2000/svg">
<path d="M23.3433 19.2518C24.2082 17.4077 24.4922 15.3009 24.1508 13.2608C23.8389 11.3555 23.0089 9.59859 21.7702 8.22123C20.5314 6.84387 18.9419 5.91063 17.2108 5.54433C17.0273 5.4943 16.8415 5.45431 16.6543 5.42451C16.2617 4.66474 15.7813 3.96396 15.2249 3.33962C14.0992 2.09188 12.683 1.2077 11.1309 0.783626C9.57878 0.359551 7.95039 0.411881 6.4235 0.934901C4.89662 1.45792 3.52994 2.43153 2.47268 3.74942C1.41542 5.06732 0.708225 6.67884 0.428299 8.40805C0.0935219 10.4483 0.37717 12.5528 1.23578 14.3991L0.810216 16.1365C0.710897 16.5429 0.710792 16.9709 0.80991 17.3774C0.909029 17.7839 1.10388 18.1545 1.37485 18.4521C1.64583 18.7496 1.98339 18.9636 2.35357 19.0724C2.72375 19.1813 3.11351 19.1812 3.48364 19.0721L5.06587 18.6048C5.97724 19.1146 6.96363 19.4432 7.97935 19.5753C8.73217 21.0609 9.83126 22.3 11.1639 23.1653C12.4966 24.0307 14.0149 24.4914 15.5631 24.5C16.9296 24.5025 18.2768 24.145 19.4914 23.4575L21.0737 23.9129C21.4458 24.027 21.8389 24.0305 22.2128 23.9232C22.5866 23.8158 22.9278 23.6014 23.2015 23.3018C23.4725 23.0048 23.6676 22.6348 23.7672 22.2289C23.8667 21.823 23.8674 21.3955 23.7689 20.9892L23.3433 19.2518ZM5.20772 16.1844C5.11349 16.172 5.01824 16.172 4.92401 16.1844L2.91622 16.7835L3.46181 14.5788C3.53017 14.271 3.49125 13.9462 3.35269 13.6682C2.5755 12.2083 2.30063 10.4908 2.57795 8.82742C2.79691 7.54071 3.33164 6.34406 4.12445 5.36655C4.91727 4.38903 5.93809 3.66775 7.0768 3.2805C8.21551 2.89325 9.4289 2.85473 10.5861 3.1691C11.7433 3.48347 12.8003 4.13879 13.6432 5.06438C14.4862 5.98997 15.083 7.15069 15.3692 8.42137C15.6555 9.69204 15.6205 11.0244 15.2678 12.2748C14.9151 13.5252 14.2583 14.6461 13.3681 15.5167C12.4779 16.3873 11.3881 16.9744 10.2163 17.2149C8.67775 17.5301 7.0873 17.2192 5.7424 16.3402C5.57722 16.2445 5.39439 16.1912 5.20772 16.1844ZM21.2264 18.5089C21.1546 18.6454 21.108 18.7961 21.0892 18.9523C21.0705 19.1086 21.0801 19.2674 21.1173 19.4196L21.6629 21.6123L19.6551 21.0252C19.5158 20.9861 19.3708 20.9776 19.2285 21.0002C19.0862 21.0228 18.9493 21.0761 18.8258 21.157C17.4968 21.9949 15.9422 22.2944 14.4328 22.0032C12.9233 21.712 11.5548 20.8486 10.5655 19.5634C12.2986 19.2187 13.8962 18.3063 15.1485 16.9463C16.4007 15.5862 17.249 13.842 17.5818 11.9428C17.7935 10.6611 17.775 9.34639 17.5273 8.07255C18.6593 8.47361 19.6716 9.20307 20.4572 10.1838C21.2428 11.1646 21.7725 12.3602 21.9903 13.6442C22.2793 15.3139 22.0079 17.042 21.2264 18.5089Z" fill="#023586"/>
</svg>
