<svg width="25" height="25" viewBox="0 0 25 25" fill="none" xmlns="http://www.w3.org/2000/svg">
<path d="M20.2085 15.5H15.7085C14.8826 15.5 14.2085 14.8259 14.2085 14C14.2085 13.1741 14.8826 12.5 15.7085 12.5H20.2085C20.2085 12.5 24.7085 7.48438 24.7085 5C24.7085 2.51562 22.6929 0.5 20.2085 0.5C17.7241 0.5 15.7085 2.51562 15.7085 5C15.7085 6.19531 16.7524 7.97094 17.8305 9.5H15.7085C13.2297 9.5 11.2085 11.5212 11.2085 14C11.2085 16.4788 13.2302 18.5 15.7085 18.5H20.2085C21.0344 18.5 21.7085 19.1741 21.7085 20C21.7085 20.8259 21.0344 21.5 20.2085 21.5H9.40381C8.65381 22.6602 7.82178 23.7383 7.18896 24.5H20.2085C22.6872 24.5 24.7085 22.4783 24.7085 20C24.7085 17.5217 22.6882 15.5 20.2085 15.5ZM20.2085 3.5C21.0405 3.5 21.7085 4.16797 21.7085 5C21.7085 5.83203 21.0405 6.5 20.2085 6.5C19.3765 6.5 18.7085 5.83203 18.7085 5C18.7085 4.16797 19.3741 3.5 20.2085 3.5ZM5.2085 12.5C2.72412 12.5 0.708496 14.5156 0.708496 17C0.708496 19.4844 5.2085 24.5 5.2085 24.5C5.2085 24.5 9.7085 19.4844 9.7085 17C9.7085 14.5156 7.69287 12.5 5.2085 12.5ZM5.2085 18.5C4.37646 18.5 3.7085 17.832 3.7085 17C3.7085 16.168 4.37646 15.5 5.2085 15.5C6.04053 15.5 6.7085 16.168 6.7085 17C6.7085 17.832 6.04287 18.5 5.2085 18.5Z" fill="#023586"/>
</svg>
