<svg width="25" height="25" viewBox="0 0 25 25" fill="none" xmlns="http://www.w3.org/2000/svg">
<path d="M21.7909 2.1558C20.6984 1.03415 19.2966 0.454573 17.8806 0.502781C16.1229 0.502781 14.3488 1.32769 13.0515 2.85858L12.1278 3.94435L11.2042 2.85858C9.90549 1.32769 8.13324 0.502781 6.37505 0.502781C4.95912 0.502781 3.55866 1.03468 2.42452 2.1558C-0.488922 5.03708 -0.634734 10.1745 1.99177 13.2759L11.05 23.9729C11.3496 24.3232 11.734 24.5 12.1232 24.5C12.5138 24.5 12.9057 24.325 13.202 23.9748L22.2555 13.2779C24.89 10.1713 24.7446 5.0344 21.7909 2.1558ZM20.6422 11.489L12.1278 21.5486L3.61071 11.489C2.09913 9.70529 1.74093 6.18605 3.89764 4.09969C5.76836 2.24954 8.3325 3.16229 9.58949 4.64444L12.1293 7.63981L14.6685 4.64444C15.9073 3.18372 18.4784 2.2399 20.3604 4.09969C22.4941 6.21283 22.1847 9.66779 20.6422 11.489Z" fill="#023586"/>
</svg>
